<svg width="9" height="5" viewBox="0 0 9 5" fill="none" xmlns="http://www.w3.org/2000/svg">
<path d="M0.750004 0.624958C0.896037 0.624673 1.03756 0.675532 1.15 0.768708L4.5 3.56871L7.85626 0.868709C7.92019 0.816793 7.99375 0.778023 8.07271 0.754628C8.15167 0.731233 8.23448 0.723675 8.31637 0.732387C8.39826 0.741098 8.47763 0.765909 8.5499 0.805393C8.62217 0.844876 8.68593 0.898254 8.73751 0.962459C8.78942 1.02639 8.82819 1.09995 8.85159 1.17891C8.87498 1.25787 8.88254 1.34068 8.87383 1.42257C8.86512 1.50447 8.84031 1.58383 8.80082 1.6561C8.76134 1.72838 8.70796 1.79213 8.64376 1.84371L4.89375 4.86246C4.78192 4.95438 4.64164 5.00464 4.49688 5.00464C4.35211 5.00464 4.21184 4.95438 4.1 4.86246L0.350004 1.73746C0.286718 1.68499 0.234404 1.62055 0.196059 1.54784C0.157713 1.47512 0.13409 1.39555 0.126542 1.31369C0.118995 1.23183 0.127673 1.14928 0.152075 1.07078C0.176478 0.99228 0.216127 0.919363 0.268753 0.856208C0.326912 0.784512 0.400233 0.726591 0.483443 0.686607C0.566653 0.646622 0.657688 0.625569 0.750004 0.624958Z" fill="#219653"/>
</svg>
