<svg width="9" height="5" viewBox="0 0 9 5" fill="none" xmlns="http://www.w3.org/2000/svg">
<path d="M8.24989 4.375C8.10386 4.37528 7.96233 4.32442 7.84989 4.23125L4.49989 1.43125L1.14364 4.13125C1.07971 4.18316 1.00615 4.22193 0.927186 4.24533C0.848224 4.26872 0.765417 4.27628 0.683524 4.26757C0.601631 4.25886 0.522267 4.23405 0.449994 4.19456C0.377721 4.15508 0.313964 4.1017 0.262388 4.0375C0.210471 3.97357 0.171702 3.90001 0.148307 3.82104C0.124912 3.74208 0.117354 3.65927 0.126066 3.57738C0.134778 3.49549 0.159588 3.41612 0.199072 3.34385C0.238556 3.27158 0.291934 3.20782 0.356138 3.15625L4.10614 0.137496C4.21797 0.0455695 4.35825 -0.00468445 4.50301 -0.00468445C4.64778 -0.00468445 4.78806 0.0455695 4.89989 0.137496L8.64989 3.2625C8.71318 3.31496 8.76549 3.3794 8.80383 3.45212C8.84218 3.52484 8.8658 3.6044 8.87335 3.68626C8.8809 3.76812 8.87222 3.85067 8.84782 3.92917C8.82342 4.00767 8.78377 4.08059 8.73114 4.14375C8.67298 4.21544 8.59966 4.27336 8.51645 4.31335C8.43324 4.35333 8.34221 4.37438 8.24989 4.375Z" fill="#3FCF5E"/>
</svg>
