<svg width="35" height="36" viewBox="0 0 35 36" fill="none" xmlns="http://www.w3.org/2000/svg">
<path fill-rule="evenodd" clip-rule="evenodd" d="M3.59729 9.13873L3.47048 9.12547C3.009 9.1086 2.59459 9.43495 2.51364 9.90262L2.50038 10.0294C2.48351 10.4909 2.80986 10.9053 3.27753 10.9863L5.16378 11.3125L6.30694 24.9322L6.3306 25.1369C6.5606 26.6899 7.89641 27.8575 9.48741 27.8575H23.1274L23.3328 27.851C24.8282 27.7555 26.0682 26.6246 26.2864 25.1223L27.4727 16.9243L27.4932 16.736C27.6024 15.2371 26.415 13.9363 24.8862 13.9363H7.26503L6.97162 10.4341L6.94951 10.2955C6.86396 9.93512 6.57098 9.65341 6.19729 9.58873L3.59729 9.13873ZM9.34231 25.9746C8.72322 25.9068 8.22811 25.4097 8.17523 24.7758L7.42235 15.8113H24.886L24.9962 15.8194C25.3909 15.878 25.676 16.2471 25.6169 16.6558L24.4306 24.8532L24.4009 24.9998C24.2504 25.573 23.7311 25.9825 23.1272 25.9825H9.48723L9.34231 25.9746ZM7.38533 31.7316C7.38533 30.6865 8.23242 29.8379 9.27783 29.8379C10.3231 29.8379 11.1716 30.6864 11.1716 31.7316C11.1716 32.777 10.323 33.6241 9.27783 33.6241C8.23256 33.6241 7.38533 32.7769 7.38533 31.7316ZM21.4497 31.7316C21.4497 30.6864 22.2982 29.8379 23.3435 29.8379C24.3887 29.8379 25.2372 30.6864 25.2372 31.7316C25.2372 32.777 24.3886 33.6241 23.3435 33.6241C22.2983 33.6241 21.4497 32.777 21.4497 31.7316ZM22.0604 19.4937C22.0604 18.976 21.6406 18.5562 21.1229 18.5562H17.6566L17.5294 18.5648C17.0718 18.6269 16.7191 19.0191 16.7191 19.4937C16.7191 20.0115 17.1389 20.4312 17.6566 20.4312H21.1229L21.2501 20.4227C21.7077 20.3606 22.0604 19.9684 22.0604 19.4937Z" fill="#333333"/>
<circle cx="25" cy="10" r="10" fill="#06D10E"/>
<path d="M28.1999 12.68V14H22.0079V12.956L25.3439 9.788C25.7199 9.428 25.9719 9.116 26.0999 8.852C26.2359 8.58 26.3039 8.312 26.3039 8.048C26.3039 7.656 26.1719 7.356 25.9079 7.148C25.6439 6.94 25.2559 6.836 24.7439 6.836C23.8879 6.836 23.2319 7.128 22.7759 7.712L21.6839 6.872C22.0119 6.432 22.4519 6.092 23.0039 5.852C23.5639 5.604 24.1879 5.48 24.8759 5.48C25.7879 5.48 26.5159 5.696 27.0599 6.128C27.6039 6.56 27.8759 7.148 27.8759 7.892C27.8759 8.348 27.7799 8.776 27.5879 9.176C27.3959 9.576 27.0279 10.032 26.4839 10.544L24.2399 12.68H28.1999Z" fill="white"/>
</svg>
